<?xml version="1.0" encoding="UTF-8"?>
<!--Generator: Apple Native CoreSVG 175.5-->
<!DOCTYPE svg
PUBLIC "-//W3C//DTD SVG 1.1//EN"
       "http://www.w3.org/Graphics/SVG/1.1/DTD/svg11.dtd">
<svg version="1.1" xmlns="http://www.w3.org/2000/svg" xmlns:xlink="http://www.w3.org/1999/xlink" width="51.5332" height="63.4863">
 <g>
  <rect height="63.4863" opacity="0" width="51.5332" x="0" y="0"/>
  <path d="M9.43359 18.9844C14.6484 18.9844 18.8672 14.7363 18.8672 9.52148C18.8672 4.33594 14.6484 0.0878906 9.43359 0.0878906C4.21875 0.0878906 0 4.33594 0 9.52148C0 14.7363 4.21875 18.9844 9.43359 18.9844ZM9.43359 14.3848C6.73828 14.3848 4.59961 12.2461 4.59961 9.52148C4.59961 6.79688 6.73828 4.6875 9.43359 4.6875C12.1582 4.6875 14.2676 6.79688 14.2676 9.52148C14.2676 12.2461 12.1875 14.3848 9.43359 14.3848ZM7.06055 20.0684C7.06055 25.9277 10.7227 30.0293 17.6953 31.9629L32.4316 36.123C37.2656 37.5 39.7266 39.9902 39.7266 43.5059L39.7266 45.5566L44.4434 45.5566L44.4434 43.5059C44.4434 37.6758 40.8105 33.5742 33.8379 31.6406L19.1016 27.4805C14.2969 26.1328 11.7773 23.584 11.7773 20.0684L11.7773 18.0469L7.06055 18.0469ZM42.0996 44.6191C36.8848 44.6191 32.6367 48.8379 32.6367 54.082C32.6367 59.2676 36.8848 63.4863 42.0996 63.4863C47.3145 63.4863 51.5332 59.2676 51.5332 54.082C51.5332 48.8379 47.3145 44.6191 42.0996 44.6191Z" fill="#ffffff"/>
 </g>
</svg>
